<?xml version="1.0" encoding="utf-8"?>
<!-- Generator: Adobe Illustrator 21.0.2, SVG Export Plug-In . SVG Version: 6.00 Build 0)  -->
<svg version="1.1" xmlns="http://www.w3.org/2000/svg" xmlns:xlink="http://www.w3.org/1999/xlink" x="0px" y="0px"
	 viewBox="0 0 250 169.5" style="enable-background:new 0 0 250 169.5;" xml:space="preserve">
<style type="text/css">
	.st0{fill-rule:evenodd;clip-rule:evenodd;fill:#EFEFF0;}
	.st1{fill:#EFEFF0;}
</style>
<g id="Layer_2">
</g>
<g id="Layer_1">
	<g>
		<path class="st0" d="M236.6,147.3H233l-4.8,7.4l8.9,14.1h-10.4l-3.5-6.4c-0.3-0.7-0.5-1.2-0.6-1.4h-0.2c-0.1,0.2-0.3,0.7-0.6,1.4
			l-3.4,6.4h-10.4l8.9-14.1l-9.1-14.4h10.7l3.1,6.4c0.4,1,0.7,1.6,0.9,1.8h0.2c0.1-0.2,0.4-0.8,0.8-1.8l3.1-6.4h10.1V147.3z
			 M107.2,43.4c2.8-2.7,6.1-4.1,9.9-4.1c3.9,0,7.1,1.4,9.9,4.1c2.8,2.7,4.1,6,4.1,9.9s-1.4,7.2-4.1,9.9c-2.7,2.7-6,4.1-9.9,4.1
			c-3.8,0-7.1-1.4-9.9-4.1c-2.7-2.7-4.1-6-4.1-9.9S104.5,46.2,107.2,43.4z M90.7,31c-5.4,6.4-8.1,13.8-8.1,22.4
			c0,8.5,2.7,16,8.1,22.3c0.6,0.7,1.2,1.4,1.9,2.1c6.8,6.8,15,10.2,24.5,10.2c6.8,0,12.9-1.7,18.3-5.2l-7.5-7.5l14.4-14.3l6.4,6.4
			c1.9-4.3,2.8-8.9,2.8-14c0-9.6-3.4-17.7-10.1-24.4c-6.7-6.8-14.8-10.2-24.3-10.2c-9.5,0-17.7,3.4-24.5,10.2
			C91.9,29.6,91.3,30.3,90.7,31z M79.3,91C68.9,80.7,63.8,68.1,63.8,53.4c0-14.7,5.2-27.3,15.5-37.8c3.6-3.5,7.4-6.4,11.4-8.7
			C98.6,2.3,107.4,0,117.1,0c14.8,0,27.4,5.2,37.8,15.5c10.4,10.5,15.6,23.1,15.6,37.8c0,10.4-2.6,19.8-7.7,28l12,12l-14.3,14.3
			l-11.5-11.4c-9.2,7-19.8,10.5-31.9,10.5c-9.7,0-18.5-2.3-26.4-6.9C86.7,97.6,82.9,94.6,79.3,91z M19,143.6
			c0.9-3.5,2.6-6.5,5.1-9.1c3.9-3.8,8.8-5.7,14.8-5.8c6.1,0.1,11,2.1,14.9,5.8c3.7,3.8,5.7,8.6,5.8,14.4c-0.1,4.5-1.4,8.4-3.9,11.7
			l4.2,3.4l-5.5,6.1l-4-3.8c-3.3,2.2-7.1,3.3-11.4,3.3c-6-0.1-11-2.2-14.8-6c-2.5-2.6-4.2-5.6-5.1-9c-0.4-1.8-0.7-3.6-0.7-5.5
			C18.3,146.9,18.6,145.2,19,143.6z M0,139.6h13.6v28.5H3.9v-21.6H0V139.6z M13.4,128.7v7.4H4v-7.4H13.4z M189.7,149.6
			c-0.1-0.1-0.7-0.1-2-0.1c-1.2-0.1-2.5,0.3-4,0.9c-1.5,0.6-2.6,1.9-3.4,4c-0.3,1-0.5,2.2-0.5,3.7v10.8h-9.6v-28.5h9.3v4.9
			c-0.1,1.1-0.1,1.7-0.1,1.9h0.1c0.6-2,1.7-3.7,3.4-5c1.6-1.4,3.5-2.1,5.8-2.1c0.6,0.1,0.9,0.1,1,0.1V149.6z M203.7,140.4v28.5H194
			v-28.5H203.7z M203.6,129.3v7.6H194v-7.6H203.6z M164.4,140.8v7.5h-5.9v8.6c0,2.5,1.7,3.7,5.1,3.7c0.5,0,1,0,1.3-0.1v8.2
			c-0.7,0.1-1.6,0.1-2.6,0.1c-8.9,0-13.3-3.6-13.3-10.7v-10h-3.6v-7.5h3.9v-8.1h9.3v8.1H164.4z M128.8,147c-1.3,0.1-2.4,0.5-3.2,1.3
			c-0.7,0.8-1.1,1.7-1.4,2.7h8.3C132.5,148.6,131.2,147.3,128.8,147z M129,139.7c4.2,0.2,7.5,1.5,9.9,4c2.2,2.6,3.4,5.9,3.4,9.8
			c0,0.5,0,1.1-0.1,1.8c0,0.7-0.1,1.1-0.1,1.2h-18c0.3,1.7,1.2,3,2.5,3.8c1.2,0.8,2.6,1.3,4.1,1.3c2.1-0.1,3.9-0.6,5.5-1.5
			c1.5-0.8,2.2-1.2,2.2-1.4l3.7,6.7c0,0.2-1.1,0.8-3.3,2c-2.1,1.2-5.1,1.9-8.9,2c-5.2-0.1-9.1-1.7-11.7-4.7c-2.7-2.9-4-6.2-4-10.1
			c0.1-4.3,1.4-7.8,3.9-10.6C120.7,141.3,124.3,139.8,129,139.7z M109.7,150.6v18.3H100v-16.7c0.2-2.3-0.6-3.5-2.2-3.6
			c-2.9,0.2-4.6,2-5.1,5.3c-0.2,1-0.3,2.1-0.3,3.4v11.6h-9.6v-16.7c0.2-2.3-0.5-3.5-2.2-3.6c-2.8,0.1-4.5,1.8-5.1,5.1
			c-0.2,1.1-0.3,2.3-0.3,3.6v11.6h-9.6v-28.5h9.3v2.5c-0.1,1.1-0.2,1.7-0.2,1.8h0.2c0.6-1.1,1.6-2.1,3-3.2c1.3-1,3.1-1.6,5.3-1.8
			c3.7,0,6.4,1.6,8,4.9h0.1c0.8-1.3,1.9-2.4,3.5-3.3c1.5-1,3.3-1.5,5.5-1.6c2.7,0,4.9,0.8,6.7,2.5
			C108.7,143.8,109.6,146.6,109.7,150.6z M46.5,140.8c-2-2.1-4.6-3.2-7.6-3.3c-3,0-5.5,1.1-7.4,3.3c-2,2-3.1,4.7-3.2,8
			c0.1,3.4,1.1,6.2,3.2,8.4c2,2.2,4.5,3.3,7.4,3.4c1.6,0,3-0.3,4.3-0.9l-4-3.6l5.4-6l3.9,3.7c0.7-1.6,1-3.2,1-5.1
			C49.5,145.6,48.5,142.9,46.5,140.8z"/>
		<g>
			<path class="st1" d="M250,142.5c0,2.6-2,4.7-4.7,4.7c-2.6,0-4.7-2-4.7-4.7c0-2.6,2.1-4.6,4.7-4.6C248,137.9,250,139.9,250,142.5z
				 M241.7,142.5c0,2,1.5,3.7,3.6,3.7c2,0,3.5-1.6,3.5-3.6c0-2-1.5-3.7-3.5-3.7C243.2,138.8,241.7,140.5,241.7,142.5z M244.6,144.9
				h-1.1v-4.6c0.4-0.1,1-0.1,1.8-0.1c0.9,0,1.3,0.1,1.6,0.3c0.3,0.2,0.4,0.6,0.4,1c0,0.5-0.4,0.9-1,1.1v0.1c0.4,0.2,0.7,0.5,0.8,1.1
				c0.1,0.7,0.2,1,0.3,1.1h-1.1c-0.1-0.2-0.2-0.6-0.4-1.1c-0.1-0.5-0.4-0.7-1-0.7h-0.5V144.9z M244.6,142.3h0.5
				c0.6,0,1.1-0.2,1.1-0.7c0-0.4-0.3-0.7-1-0.7c-0.3,0-0.5,0-0.6,0.1V142.3z"/>
		</g>
	</g>
</g>
</svg>
